<mxfile host="app.diagrams.net" modified="2023-09-05T07:45:35.405Z" agent="Mozilla/5.0 (Windows NT 10.0; Win64; x64) AppleWebKit/537.36 (KHTML, like Gecko) Chrome/116.0.0.0 Safari/537.36" etag="KxRuRccyJrAxeGncyOIX" version="21.7.1" type="github">
  <diagram id="C5RBs43oDa-KdzZeNtuy" name="Page-1">
    <mxGraphModel dx="3088" dy="1959" grid="1" gridSize="10" guides="1" tooltips="1" connect="1" arrows="1" fold="1" page="1" pageScale="1" pageWidth="827" pageHeight="1169" math="0" shadow="0">
      <root>
        <mxCell id="WIyWlLk6GJQsqaUBKTNV-0" />
        <mxCell id="WIyWlLk6GJQsqaUBKTNV-1" parent="WIyWlLk6GJQsqaUBKTNV-0" />
        <mxCell id="WIyWlLk6GJQsqaUBKTNV-2" value="" style="rounded=0;html=1;jettySize=auto;orthogonalLoop=1;fontSize=11;endArrow=block;endFill=0;endSize=8;strokeWidth=1;shadow=0;labelBackgroundColor=none;edgeStyle=orthogonalEdgeStyle;" parent="WIyWlLk6GJQsqaUBKTNV-1" source="WIyWlLk6GJQsqaUBKTNV-3" target="WIyWlLk6GJQsqaUBKTNV-6" edge="1">
          <mxGeometry relative="1" as="geometry" />
        </mxCell>
        <mxCell id="WIyWlLk6GJQsqaUBKTNV-3" value="User enter string in search input" style="rounded=1;whiteSpace=wrap;html=1;fontSize=12;glass=0;strokeWidth=1;shadow=0;fillColor=#f5f5f5;fontColor=#333333;strokeColor=#666666;" parent="WIyWlLk6GJQsqaUBKTNV-1" vertex="1">
          <mxGeometry x="-187" y="-1169" width="120" height="40" as="geometry" />
        </mxCell>
        <mxCell id="WIyWlLk6GJQsqaUBKTNV-5" value="No" style="edgeStyle=orthogonalEdgeStyle;rounded=0;html=1;jettySize=auto;orthogonalLoop=1;fontSize=11;endArrow=block;endFill=0;endSize=8;strokeWidth=1;shadow=0;labelBackgroundColor=none;" parent="WIyWlLk6GJQsqaUBKTNV-1" source="WIyWlLk6GJQsqaUBKTNV-6" target="WIyWlLk6GJQsqaUBKTNV-7" edge="1">
          <mxGeometry y="10" relative="1" as="geometry">
            <mxPoint as="offset" />
          </mxGeometry>
        </mxCell>
        <mxCell id="WIyWlLk6GJQsqaUBKTNV-6" value="Input search has at least 3 char" style="rhombus;whiteSpace=wrap;html=1;shadow=0;fontFamily=Helvetica;fontSize=12;align=center;strokeWidth=1;spacing=6;spacingTop=-4;fillColor=#fff2cc;strokeColor=#d6b656;" parent="WIyWlLk6GJQsqaUBKTNV-1" vertex="1">
          <mxGeometry x="-177" y="-1069" width="100" height="80" as="geometry" />
        </mxCell>
        <mxCell id="WIyWlLk6GJQsqaUBKTNV-7" value="show all recipes in recipe container" style="rounded=1;whiteSpace=wrap;html=1;fontSize=12;glass=0;strokeWidth=1;shadow=0;fillColor=#f5f5f5;fontColor=#333333;strokeColor=#666666;" parent="WIyWlLk6GJQsqaUBKTNV-1" vertex="1">
          <mxGeometry x="-17" y="41" width="120" height="40" as="geometry" />
        </mxCell>
        <mxCell id="WIyWlLk6GJQsqaUBKTNV-9" value="no" style="edgeStyle=orthogonalEdgeStyle;rounded=0;html=1;jettySize=auto;orthogonalLoop=1;fontSize=11;endArrow=block;endFill=0;endSize=8;strokeWidth=1;shadow=0;labelBackgroundColor=none;entryX=0.5;entryY=1;entryDx=0;entryDy=0;" parent="WIyWlLk6GJQsqaUBKTNV-1" source="WIyWlLk6GJQsqaUBKTNV-10" target="WIyWlLk6GJQsqaUBKTNV-6" edge="1">
          <mxGeometry y="10" relative="1" as="geometry">
            <mxPoint as="offset" />
            <mxPoint x="-227" y="-599" as="targetPoint" />
          </mxGeometry>
        </mxCell>
        <mxCell id="WIyWlLk6GJQsqaUBKTNV-10" value="At least one tag has been selected" style="rhombus;whiteSpace=wrap;html=1;shadow=0;fontFamily=Helvetica;fontSize=12;align=center;strokeWidth=1;spacing=6;spacingTop=-4;fillColor=#fff2cc;strokeColor=#d6b656;" parent="WIyWlLk6GJQsqaUBKTNV-1" vertex="1">
          <mxGeometry x="-697" y="-530" width="150" height="100" as="geometry" />
        </mxCell>
        <mxCell id="YLPuf2BasNj8lZ_TovFd-3" value="" style="edgeStyle=orthogonalEdgeStyle;rounded=0;orthogonalLoop=1;jettySize=auto;html=1;" parent="WIyWlLk6GJQsqaUBKTNV-1" source="WIyWlLk6GJQsqaUBKTNV-11" target="YLPuf2BasNj8lZ_TovFd-2" edge="1">
          <mxGeometry relative="1" as="geometry" />
        </mxCell>
        <mxCell id="WIyWlLk6GJQsqaUBKTNV-11" value="Tag show in tag container" style="rounded=1;whiteSpace=wrap;html=1;fontSize=12;glass=0;strokeWidth=1;shadow=0;fillColor=#f5f5f5;fontColor=#333333;strokeColor=#666666;" parent="WIyWlLk6GJQsqaUBKTNV-1" vertex="1">
          <mxGeometry x="-682" y="-390" width="120" height="40" as="geometry" />
        </mxCell>
        <mxCell id="YLPuf2BasNj8lZ_TovFd-12" style="edgeStyle=orthogonalEdgeStyle;rounded=0;orthogonalLoop=1;jettySize=auto;html=1;exitX=0.5;exitY=1;exitDx=0;exitDy=0;entryX=0.18;entryY=0.35;entryDx=0;entryDy=0;entryPerimeter=0;" parent="WIyWlLk6GJQsqaUBKTNV-1" source="YLPuf2BasNj8lZ_TovFd-0" target="WIyWlLk6GJQsqaUBKTNV-10" edge="1">
          <mxGeometry relative="1" as="geometry">
            <mxPoint x="-567" y="-689" as="targetPoint" />
          </mxGeometry>
        </mxCell>
        <mxCell id="YLPuf2BasNj8lZ_TovFd-0" value="user select one tag" style="rounded=1;whiteSpace=wrap;html=1;fontSize=12;glass=0;strokeWidth=1;shadow=0;fillColor=#f5f5f5;fontColor=#333333;strokeColor=#666666;" parent="WIyWlLk6GJQsqaUBKTNV-1" vertex="1">
          <mxGeometry x="-797" y="-1099" width="120" height="40" as="geometry" />
        </mxCell>
        <mxCell id="YLPuf2BasNj8lZ_TovFd-5" value="" style="edgeStyle=orthogonalEdgeStyle;rounded=0;orthogonalLoop=1;jettySize=auto;html=1;" parent="WIyWlLk6GJQsqaUBKTNV-1" source="YLPuf2BasNj8lZ_TovFd-2" target="YLPuf2BasNj8lZ_TovFd-4" edge="1">
          <mxGeometry relative="1" as="geometry" />
        </mxCell>
        <mxCell id="YLPuf2BasNj8lZ_TovFd-2" value="Filter recipes by ingredients appliances or ustensils" style="rounded=1;whiteSpace=wrap;html=1;fontSize=12;glass=0;strokeWidth=1;shadow=0;fillColor=#f5f5f5;fontColor=#333333;strokeColor=#666666;" parent="WIyWlLk6GJQsqaUBKTNV-1" vertex="1">
          <mxGeometry x="-682" y="-309" width="120" height="80" as="geometry" />
        </mxCell>
        <mxCell id="YLPuf2BasNj8lZ_TovFd-4" value="at least one result" style="rhombus;whiteSpace=wrap;html=1;fillColor=#fff2cc;strokeColor=#d6b656;" parent="WIyWlLk6GJQsqaUBKTNV-1" vertex="1">
          <mxGeometry x="-662" y="-200" width="80" height="80" as="geometry" />
        </mxCell>
        <mxCell id="YLPuf2BasNj8lZ_TovFd-6" value="Yes" style="rounded=0;html=1;jettySize=auto;orthogonalLoop=1;fontSize=11;endArrow=block;endFill=0;endSize=8;strokeWidth=1;shadow=0;labelBackgroundColor=none;edgeStyle=orthogonalEdgeStyle;" parent="WIyWlLk6GJQsqaUBKTNV-1" source="YLPuf2BasNj8lZ_TovFd-4" edge="1">
          <mxGeometry y="20" relative="1" as="geometry">
            <mxPoint as="offset" />
            <mxPoint x="-392" y="-160" as="sourcePoint" />
            <mxPoint x="-717" y="-70" as="targetPoint" />
          </mxGeometry>
        </mxCell>
        <mxCell id="YLPuf2BasNj8lZ_TovFd-9" value="" style="edgeStyle=orthogonalEdgeStyle;rounded=0;orthogonalLoop=1;jettySize=auto;html=1;" parent="WIyWlLk6GJQsqaUBKTNV-1" source="YLPuf2BasNj8lZ_TovFd-7" edge="1">
          <mxGeometry relative="1" as="geometry">
            <mxPoint x="-717" y="50" as="targetPoint" />
          </mxGeometry>
        </mxCell>
        <mxCell id="YLPuf2BasNj8lZ_TovFd-7" value="show filtered recipes in recipes container" style="rounded=1;whiteSpace=wrap;html=1;fontSize=12;glass=0;strokeWidth=1;shadow=0;fillColor=#f5f5f5;fontColor=#333333;strokeColor=#666666;" parent="WIyWlLk6GJQsqaUBKTNV-1" vertex="1">
          <mxGeometry x="-777" y="-70" width="120" height="80" as="geometry" />
        </mxCell>
        <mxCell id="YLPuf2BasNj8lZ_TovFd-15" style="edgeStyle=orthogonalEdgeStyle;rounded=0;orthogonalLoop=1;jettySize=auto;html=1;entryX=0;entryY=0.5;entryDx=0;entryDy=0;exitX=0.017;exitY=0.425;exitDx=0;exitDy=0;exitPerimeter=0;" parent="WIyWlLk6GJQsqaUBKTNV-1" source="YLPuf2BasNj8lZ_TovFd-13" edge="1">
          <mxGeometry relative="1" as="geometry">
            <mxPoint x="-687" y="-480" as="targetPoint" />
            <Array as="points">
              <mxPoint x="-827" y="84" />
              <mxPoint x="-827" y="-480" />
            </Array>
          </mxGeometry>
        </mxCell>
        <mxCell id="YLPuf2BasNj8lZ_TovFd-13" value="delete one tag&amp;nbsp;" style="rounded=1;whiteSpace=wrap;html=1;fontSize=12;glass=0;strokeWidth=1;shadow=0;fillColor=#f5f5f5;fontColor=#333333;strokeColor=#666666;" parent="WIyWlLk6GJQsqaUBKTNV-1" vertex="1">
          <mxGeometry x="-777" y="50" width="120" height="80" as="geometry" />
        </mxCell>
        <mxCell id="YLPuf2BasNj8lZ_TovFd-20" value="no" style="edgeStyle=orthogonalEdgeStyle;rounded=0;html=1;jettySize=auto;orthogonalLoop=1;fontSize=11;endArrow=block;endFill=0;endSize=8;strokeWidth=1;shadow=0;labelBackgroundColor=none;" parent="WIyWlLk6GJQsqaUBKTNV-1" edge="1">
          <mxGeometry y="10" relative="1" as="geometry">
            <mxPoint as="offset" />
            <mxPoint x="-581" y="-160" as="sourcePoint" />
            <mxPoint x="-476" y="70" as="targetPoint" />
            <Array as="points">
              <mxPoint x="-581" y="-159" />
              <mxPoint x="-476" y="-159" />
            </Array>
          </mxGeometry>
        </mxCell>
        <mxCell id="YLPuf2BasNj8lZ_TovFd-21" value="Show message in recipe container aucunes recettes + name search" style="rounded=1;whiteSpace=wrap;html=1;fontSize=12;glass=0;strokeWidth=1;shadow=0;fillColor=#f5f5f5;fontColor=#333333;strokeColor=#666666;" parent="WIyWlLk6GJQsqaUBKTNV-1" vertex="1">
          <mxGeometry x="-507" y="70" width="120" height="80" as="geometry" />
        </mxCell>
        <mxCell id="YLPuf2BasNj8lZ_TovFd-28" value="delete char string in search input : string input has less than 2 char" style="rhombus;whiteSpace=wrap;html=1;fillColor=#fff2cc;strokeColor=#d6b656;" parent="WIyWlLk6GJQsqaUBKTNV-1" vertex="1">
          <mxGeometry x="-527" y="-679" width="160" height="110" as="geometry" />
        </mxCell>
        <mxCell id="YLPuf2BasNj8lZ_TovFd-31" value="Yes" style="rounded=0;html=1;jettySize=auto;orthogonalLoop=1;fontSize=11;endArrow=block;endFill=0;endSize=8;strokeWidth=1;shadow=0;labelBackgroundColor=none;edgeStyle=orthogonalEdgeStyle;exitX=1;exitY=0.5;exitDx=0;exitDy=0;entryX=0.25;entryY=0;entryDx=0;entryDy=0;" parent="WIyWlLk6GJQsqaUBKTNV-1" source="YLPuf2BasNj8lZ_TovFd-28" target="WIyWlLk6GJQsqaUBKTNV-7" edge="1">
          <mxGeometry x="0.0029" y="-23" relative="1" as="geometry">
            <mxPoint as="offset" />
            <mxPoint x="138" y="-39" as="sourcePoint" />
            <mxPoint x="-17" y="111" as="targetPoint" />
          </mxGeometry>
        </mxCell>
        <mxCell id="YLPuf2BasNj8lZ_TovFd-41" style="edgeStyle=orthogonalEdgeStyle;rounded=0;orthogonalLoop=1;jettySize=auto;html=1;entryX=0.5;entryY=0;entryDx=0;entryDy=0;" parent="WIyWlLk6GJQsqaUBKTNV-1" source="YLPuf2BasNj8lZ_TovFd-36" target="YLPuf2BasNj8lZ_TovFd-39" edge="1">
          <mxGeometry relative="1" as="geometry" />
        </mxCell>
        <mxCell id="YLPuf2BasNj8lZ_TovFd-36" value="Filter threw recipes ingredients name descirption" style="rounded=1;whiteSpace=wrap;html=1;fontSize=12;glass=0;strokeWidth=1;shadow=0;fillColor=#f5f5f5;fontColor=#333333;strokeColor=#666666;" parent="WIyWlLk6GJQsqaUBKTNV-1" vertex="1">
          <mxGeometry x="-397" y="-989" width="120" height="60" as="geometry" />
        </mxCell>
        <mxCell id="YLPuf2BasNj8lZ_TovFd-39" value="at least one result" style="rhombus;whiteSpace=wrap;html=1;fillColor=#fff2cc;strokeColor=#d6b656;" parent="WIyWlLk6GJQsqaUBKTNV-1" vertex="1">
          <mxGeometry x="-377" y="-869" width="80" height="80" as="geometry" />
        </mxCell>
        <mxCell id="YLPuf2BasNj8lZ_TovFd-42" value="Yes" style="rounded=0;html=1;jettySize=auto;orthogonalLoop=1;fontSize=11;endArrow=block;endFill=0;endSize=8;strokeWidth=1;shadow=0;labelBackgroundColor=none;edgeStyle=orthogonalEdgeStyle;entryX=0.5;entryY=0;entryDx=0;entryDy=0;exitX=0;exitY=0.5;exitDx=0;exitDy=0;" parent="WIyWlLk6GJQsqaUBKTNV-1" source="YLPuf2BasNj8lZ_TovFd-39" target="YLPuf2BasNj8lZ_TovFd-45" edge="1">
          <mxGeometry x="-0.3962" y="-10" relative="1" as="geometry">
            <mxPoint as="offset" />
            <mxPoint x="-427" y="-829" as="sourcePoint" />
            <mxPoint x="-492" y="-739" as="targetPoint" />
          </mxGeometry>
        </mxCell>
        <mxCell id="YLPuf2BasNj8lZ_TovFd-44" value="no" style="edgeStyle=orthogonalEdgeStyle;rounded=0;html=1;jettySize=auto;orthogonalLoop=1;fontSize=11;endArrow=block;endFill=0;endSize=8;strokeWidth=1;shadow=0;labelBackgroundColor=none;exitX=1;exitY=0.5;exitDx=0;exitDy=0;entryX=0.617;entryY=-0.062;entryDx=0;entryDy=0;entryPerimeter=0;" parent="WIyWlLk6GJQsqaUBKTNV-1" source="YLPuf2BasNj8lZ_TovFd-39" target="YLPuf2BasNj8lZ_TovFd-21" edge="1">
          <mxGeometry x="-0.8862" y="10" relative="1" as="geometry">
            <mxPoint as="offset" />
            <mxPoint x="-397" y="-669" as="sourcePoint" />
            <mxPoint x="-97" y="-504" as="targetPoint" />
            <Array as="points">
              <mxPoint x="-197" y="-829" />
              <mxPoint x="-197" y="-84" />
            </Array>
          </mxGeometry>
        </mxCell>
        <mxCell id="YLPuf2BasNj8lZ_TovFd-48" style="edgeStyle=orthogonalEdgeStyle;rounded=0;orthogonalLoop=1;jettySize=auto;html=1;entryX=0.5;entryY=0;entryDx=0;entryDy=0;" parent="WIyWlLk6GJQsqaUBKTNV-1" source="YLPuf2BasNj8lZ_TovFd-45" target="YLPuf2BasNj8lZ_TovFd-28" edge="1">
          <mxGeometry relative="1" as="geometry" />
        </mxCell>
        <mxCell id="YLPuf2BasNj8lZ_TovFd-45" value="show filtered recipes in recipes container" style="rounded=1;whiteSpace=wrap;html=1;fontSize=12;glass=0;strokeWidth=1;shadow=0;fillColor=#f5f5f5;fontColor=#333333;strokeColor=#666666;" parent="WIyWlLk6GJQsqaUBKTNV-1" vertex="1">
          <mxGeometry x="-507" y="-799" width="120" height="80" as="geometry" />
        </mxCell>
        <mxCell id="YLPuf2BasNj8lZ_TovFd-50" value="Yes" style="rounded=0;html=1;jettySize=auto;orthogonalLoop=1;fontSize=11;endArrow=block;endFill=0;endSize=8;strokeWidth=1;shadow=0;labelBackgroundColor=none;edgeStyle=orthogonalEdgeStyle;entryX=0.5;entryY=0;entryDx=0;entryDy=0;exitX=0.5;exitY=1;exitDx=0;exitDy=0;" parent="WIyWlLk6GJQsqaUBKTNV-1" source="WIyWlLk6GJQsqaUBKTNV-10" target="WIyWlLk6GJQsqaUBKTNV-11" edge="1">
          <mxGeometry x="-0.3962" y="-10" relative="1" as="geometry">
            <mxPoint as="offset" />
            <mxPoint x="-677" y="-429" as="sourcePoint" />
            <mxPoint x="-747" y="-399" as="targetPoint" />
          </mxGeometry>
        </mxCell>
        <mxCell id="YLPuf2BasNj8lZ_TovFd-53" value="no" style="rounded=0;html=1;jettySize=auto;orthogonalLoop=1;fontSize=11;endArrow=block;endFill=0;endSize=8;strokeWidth=1;shadow=0;labelBackgroundColor=none;edgeStyle=orthogonalEdgeStyle;entryX=0.5;entryY=0;entryDx=0;entryDy=0;exitX=0;exitY=0.5;exitDx=0;exitDy=0;" parent="WIyWlLk6GJQsqaUBKTNV-1" target="WIyWlLk6GJQsqaUBKTNV-10" edge="1">
          <mxGeometry x="-0.3962" y="-10" relative="1" as="geometry">
            <mxPoint as="offset" />
            <mxPoint x="-527" y="-624" as="sourcePoint" />
            <mxPoint x="-597" y="-594" as="targetPoint" />
          </mxGeometry>
        </mxCell>
        <mxCell id="YLPuf2BasNj8lZ_TovFd-54" value="Yes" style="rounded=0;html=1;jettySize=auto;orthogonalLoop=1;fontSize=11;endArrow=block;endFill=0;endSize=8;strokeWidth=1;shadow=0;labelBackgroundColor=none;edgeStyle=orthogonalEdgeStyle;entryX=0.5;entryY=0;entryDx=0;entryDy=0;exitX=0;exitY=0.5;exitDx=0;exitDy=0;" parent="WIyWlLk6GJQsqaUBKTNV-1" target="YLPuf2BasNj8lZ_TovFd-36" edge="1">
          <mxGeometry x="-0.3962" y="-10" relative="1" as="geometry">
            <mxPoint as="offset" />
            <mxPoint x="-177" y="-1029" as="sourcePoint" />
            <mxPoint x="-247" y="-999" as="targetPoint" />
          </mxGeometry>
        </mxCell>
      </root>
    </mxGraphModel>
  </diagram>
</mxfile>
